<svg id="图层_1" data-name="图层 1" xmlns="http://www.w3.org/2000/svg" viewBox="0 0 100 30"><defs><style>.cls-1,.cls-2{fill:#2e6dad;}.cls-2{stroke:#fff;stroke-width:1.2px;}.cls-3{fill:#fff;}</style></defs><g id="图层_1-2" data-name="图层 1"><rect class="cls-1" width="100" height="30"/><rect class="cls-2" x="2.5" y="2.67" width="95" height="25"/><polygon class="cls-3" points="22.57 19.23 29.05 11.28 27.44 9.84 21 17.63 17.06 14.27 15.65 16.02 20.55 20.1 21.32 20.77 21.33 20.75 21.35 20.77 22.57 19.23"/><path class="cls-3" d="M49.19,14.61v.8H39.46v-.8Zm-.94-.85a5.5,5.5,0,0,1-3.92-2.35,5.45,5.45,0,0,1-3.93,2.35L40,13c1.92-.27,3.79-1.45,3.79-2.85V9.66h1v.48c0,1.36,1.89,2.58,3.79,2.85ZM48,18.32c0,1.23-1.38,1.92-3.67,1.92s-3.69-.69-3.69-1.92,1.39-1.91,3.69-1.91S48,17.09,48,18.32Zm-1,0c0-.74-1-1.15-2.68-1.15s-2.7.41-2.7,1.15,1,1.15,2.7,1.15S47,19.06,47,18.32Z"/><path class="cls-3" d="M53.55,15.53a2.66,2.66,0,1,1,2.82-2.66A2.64,2.64,0,0,1,53.55,15.53Zm0-.85a1.8,1.8,0,1,0-1.84-1.81A1.77,1.77,0,0,0,53.55,14.68Zm6.1,4.51V20H52.41V16.54h1v2.65Zm-.32-1.85h-1V9.49h1Z"/><path class="cls-3" d="M68.29,15.68a38.45,38.45,0,0,1-6.63.44l-.13-.8c.83,0,1.8,0,2.79-.05V14.19a2.18,2.18,0,0,1-2.17-2.1c0-1.26,1.08-2.11,2.65-2.11s2.66.85,2.66,2.11a2.17,2.17,0,0,1-2.15,2.09v1.05c1-.06,2-.13,2.91-.27ZM64.8,13.46c1,0,1.73-.54,1.73-1.37s-.72-1.37-1.73-1.37-1.73.56-1.73,1.37S63.77,13.46,64.8,13.46Zm-.74,5.72h6.2V20H63.08V17h1Zm7.4-6.06v.82H69.88v3.78h-1V9.49h1v3.63Z"/><path class="cls-3" d="M82.34,18.1v.8H72.57v-.8H75.3v-2H73.79V12.74h6.38V11.07h-6.4v-.8h7.36v3.26H74.76v1.73h6.62v.8H79.71v2Zm-6.06,0h2.45v-2H76.28Z"/></g></svg>