<svg id="图层_1" data-name="图层 1" xmlns="http://www.w3.org/2000/svg" viewBox="0 0 100 30"><defs><style>.cls-1,.cls-2{fill:#2e6dad;}.cls-2{stroke:#fff;stroke-width:1.2px;}.cls-3{fill:none;}.cls-4{fill:#fff;}.cls-5{isolation:isolate;}</style></defs><rect class="cls-1" width="100" height="30"/><rect class="cls-2" x="2.5" y="2.67" width="95" height="25"/><path class="cls-3" d="M33.24,7.79H24.51V23.05H36.08V10.44l-2.85,0Zm1.18,11.73H26.26v-.24h8.16v.24Zm.06-2H26.32v-.24h8.16v.24Zm0-2.13H26.32v-.24h8.16v.24ZM34.29,13v.24H26.14V13Z"/><path class="cls-4" d="M36.08,10h0l-2.82-2.6H24.14v16H36.45V10.36Zm0,13H24.51V7.79h8.73v2.63l2.85,0Z"/><rect class="cls-4" x="26.14" y="13.01" width="8.16" height="0.24"/><rect class="cls-4" x="26.32" y="15.14" width="8.16" height="0.24"/><rect class="cls-4" x="26.32" y="17.27" width="8.16" height="0.24"/><rect class="cls-4" x="26.26" y="19.28" width="6.11" height="0.24"/><rect class="cls-4" x="24.47" y="7.73" width="8.92" height="0.18"/><rect class="cls-4" x="24.64" y="22.9" width="11.47" height="0.18"/><rect class="cls-4" x="24.47" y="7.91" width="0.18" height="15.32"/><rect class="cls-4" x="35.92" y="10.27" width="0.18" height="13.04"/><polygon class="cls-4" points="34.34 21.1 37.85 16.78 36.98 16 33.48 20.23 31.34 18.41 30.57 19.36 33.23 21.57 33.65 21.94 33.66 21.93 33.67 21.94 34.34 21.1"/><g class="cls-5"><path class="cls-4" d="M56.87,15.9a32.33,32.33,0,0,1-5.53.37l-.11-.67c.69,0,1.5,0,2.33,0v-.9a1.81,1.81,0,0,1-1.81-1.75c0-1.05.9-1.76,2.21-1.76s2.21.71,2.21,1.76a1.8,1.8,0,0,1-1.79,1.74v.88c.83,0,1.66-.11,2.43-.23ZM54,14.05c.84,0,1.44-.45,1.44-1.14s-.6-1.14-1.44-1.14-1.45.46-1.45,1.14S53.1,14.05,54,14.05Zm-.62,4.77h5.17v.67h-6V17h.82Zm6.16-5.05v.68H58.19V17.6h-.82V10.74h.82v3Z"/><path class="cls-4" d="M68.58,17.92v.67H60.43v-.67h2.28v-1.7H61.45V13.45h5.32V12.06H61.43v-.67h6.14v2.72H62.26v1.44h5.52v.67h-1.4v1.7Zm-5.06,0h2v-1.7h-2Z"/></g></svg>