<svg id="图层_1" data-name="图层 1" xmlns="http://www.w3.org/2000/svg" viewBox="0 0 100 30"><defs><style>.cls-1,.cls-2{fill:#2e6dad;}.cls-2{stroke:#fff;stroke-width:1.2px;}.cls-3{fill:#fff;}.cls-4{isolation:isolate;}</style></defs><rect class="cls-1" width="100" height="30"/><rect class="cls-2" x="2.5" y="2.67" width="95" height="25"/><path class="cls-3" d="M31.06,13.87A1.14,1.14,0,0,0,30,12.71l-7.78.06a1.12,1.12,0,0,0-1.09,1.17l0,5.54a1.13,1.13,0,0,0,1.11,1.16L30,20.59a1.13,1.13,0,0,0,1.09-1.18Z"/><path class="cls-3" d="M25.92,7.47a3.7,3.7,0,0,0-3,1.7,6,6,0,0,0-1,3.42c0,2.86,1.8,5.09,4.06,5.09h0A3.76,3.76,0,0,0,29,16a6,6,0,0,0,1-3.43C30,9.7,28.2,7.47,25.92,7.47Zm.06,9c-1.53,0-2.79-1.74-2.8-3.91s1.21-3.95,2.74-3.95,2.79,1.74,2.81,3.91S27.52,16.5,26,16.5Z"/><path class="cls-1" d="M26.89,16.34a.82.82,0,1,0-1.63,0,.8.8,0,0,0,.58.76v1.06h.45V17.11A.79.79,0,0,0,26.89,16.34Z"/><g class="cls-4"><path class="cls-3" d="M46.19,11A6.72,6.72,0,0,1,42,17.35l-.44-.67a5.93,5.93,0,0,0,3.78-5H42V11Zm2.62-1v9H48v-9Z"/><path class="cls-3" d="M55.32,14.21H51.13V10.55h4.19Zm-.8-3H51.93v2.36h2.59Zm3.79,7.07v.65H52.23V16.67h5v-.91h-5v-.64H58v2.16H53v1ZM58,14.67h-.82V10.06H58Z"/><path class="cls-3" d="M62.87,12.44a4.53,4.53,0,0,0,2.28,3.84l-.51.65a5,5,0,0,1-2.17-2.79,5,5,0,0,1-2.23,3l-.49-.66a4.75,4.75,0,0,0,2.31-4V10.83h.81Zm5.36,1.93H66.75V19h-.82v-9h.82v3.63h1.48Z"/><path class="cls-3" d="M74.38,11.72H69.09v-.66h2.23V10h.82v1.09h2.24Zm-2.65,3.62c-1.28,0-2.14-.62-2.14-1.59s.86-1.58,2.14-1.58,2.15.62,2.15,1.58S73,15.34,71.73,15.34Zm4.39,2.12c0,1-1.12,1.54-2.91,1.54s-2.92-.56-2.92-1.54,1.11-1.55,2.92-1.55S76.12,16.47,76.12,17.46Zm-4.39-2.74c.82,0,1.37-.38,1.37-1s-.55-1-1.37-1-1.36.38-1.36,1S70.92,14.72,71.73,14.72Zm3.58,2.74c0-.58-.79-.92-2.1-.92s-2.11.34-2.11.92.8.92,2.11.92S75.31,18,75.31,17.46Zm2-4.92v.68H76v2.6H75.2V10.05H76v2.49Z"/></g></svg>