<svg id="图层_1" data-name="图层 1" xmlns="http://www.w3.org/2000/svg" viewBox="0 0 100 30"><defs><style>.cls-1,.cls-2{fill:#2e6dad;}.cls-2,.cls-3,.cls-4{stroke:#fff;}.cls-2{stroke-width:1.2px;}.cls-3,.cls-4{fill:none;}.cls-3{stroke-width:0.8px;}.cls-4{stroke-width:0.6px;}.cls-5{isolation:isolate;}.cls-6{fill:#fff;}</style></defs><rect class="cls-1" width="100" height="30"/><rect class="cls-2" x="2.5" y="2.67" width="95" height="25"/><rect class="cls-3" x="26.46" y="7.53" width="12.56" height="15.88" transform="matrix(1, -0.09, 0.09, 1, -1.24, 2.96)"/><polyline class="cls-4" points="29.08 11.86 30.06 13.26 30.91 11.64 31.89 13.04 32.68 11.52 33.67 12.92 34.57 11.18 35.62 12.68 36.24 11.49"/><polyline class="cls-4" points="29.3 15.2 30.28 16.59 31.13 14.97 32.11 16.36 32.9 14.85 33.89 16.25 34.79 14.52 35.84 16.01 36.47 14.82"/><polyline class="cls-4" points="29.38 18.33 30.37 19.72 31.21 18.1 32.2 19.5 32.99 17.98 33.97 19.38 34.87 17.65 35.93 19.14 36.55 17.95"/><g class="cls-5"><path class="cls-6" d="M58.73,17.8v.82H49V17.8h4.38V15.35h1V17.8ZM49.51,15c2.08-.34,3.84-1.6,3.84-3.25H49.88v-.79h3.47V9.45h1v1.47H57.8v.79H54.34c0,1.65,1.75,2.91,3.84,3.25l-.38.78a5.38,5.38,0,0,1-3.95-2.5,5.42,5.42,0,0,1-4,2.5Z"/><path class="cls-6" d="M63,15.27a2.65,2.65,0,1,1,2.81-2.65A2.64,2.64,0,0,1,63,15.27Zm0-.85a1.8,1.8,0,1,0-1.85-1.8A1.77,1.77,0,0,0,63,14.42Zm-.37,4.51h6.19v.8H61.66v-3.4h1ZM70,12.49v.81H68.36v3.83h-1V9.21h1v3.28Z"/></g></svg>