<svg id="图层_1" data-name="图层 1" xmlns="http://www.w3.org/2000/svg" viewBox="0 0 100 30"><defs><style>.cls-1,.cls-2{fill:#cd4c32;}.cls-2{stroke:#fff;stroke-width:1.3px;}.cls-3{fill:#e9b35d;}.cls-4{isolation:isolate;}.cls-5{fill:#fff;}</style></defs><rect class="cls-1" width="100" height="30"/><rect class="cls-2" x="2.5" y="2.67" width="95" height="25"/><path class="cls-3" d="M28,7.21l-8.6,15.16,17.43-.13Zm.69,13.44H27.38V19.41h1.26Zm-.27-2.21h-.7l-.34-4.73v-2h1.36v2Z"/><g class="cls-4"><path class="cls-5" d="M58.48,11c0,2.79-2,4.86-5.13,5.84L53,16c2.58-.79,4.26-2.31,4.47-4.23h-3.9V11Zm3.4,8.89v.81H54.62V17.33h1v2.51ZM61.6,18h-1V10.14h1Z"/><path class="cls-5" d="M73.59,14.52v.8H63.81v-.8h7.25a12.75,12.75,0,0,0,.3-3.1h-6.3v-.8h7.27v.78A13.33,13.33,0,0,1,72,14.52Zm-2.25,1.77h1v4.45H65.08V16.29h1v1.42h5.29Zm0,2.19H66.05V20h5.29Z"/></g></svg>