<?xml version="1.0" encoding="utf-8"?>
<!-- Generator: Adobe Illustrator 24.0.1, SVG Export Plug-In . SVG Version: 6.00 Build 0)  -->
<svg version="1.1" id="图层_1" xmlns="http://www.w3.org/2000/svg" xmlns:xlink="http://www.w3.org/1999/xlink" x="0px" y="0px"
	 viewBox="0 0 100 30" style="enable-background:new 0 0 100 30;" xml:space="preserve">
<style type="text/css">
	.st0{fill:#2E6DAD;}
	.st1{clip-path:url(#SVGID_2_);fill:none;stroke:#FFFFFF;stroke-width:1.2;}
	.st2{clip-path:url(#SVGID_4_);fill:#FFFFFF;}
	.st3{clip-path:url(#SVGID_6_);fill:#FFFFFF;}
	.st4{clip-path:url(#SVGID_8_);fill:#FFFFFF;}
	.st5{enable-background:new    ;}
	.st6{fill:#FFFFFF;}
</style>
<rect class="st0" width="100" height="30"/>
<rect x="2.5" y="2.7" class="st0" width="95" height="25"/>
<g>
	<g>
		<g>
			<defs>
				<rect id="SVGID_1_" width="100" height="30"/>
			</defs>
			<clipPath id="SVGID_2_">
				<use xlink:href="#SVGID_1_"  style="overflow:visible;"/>
			</clipPath>
			<rect x="2.5" y="2.7" class="st1" width="95" height="25"/>
		</g>
	</g>
	<g>
		<g>
			<defs>
				<rect id="SVGID_3_" width="100" height="30"/>
			</defs>
			<clipPath id="SVGID_4_">
				<use xlink:href="#SVGID_3_"  style="overflow:visible;"/>
			</clipPath>
			<path class="st2" d="M34.2,10.7c0-2-1.7-3.7-3.8-3.7s-3.8,1.6-3.8,3.7c0,1.5,0.9,2.7,2.2,3.3v2.2h3.1V14
				C33.3,13.5,34.2,12.2,34.2,10.7"/>
		</g>
	</g>
	<g>
		<g>
			<defs>
				<rect id="SVGID_5_" width="100" height="30"/>
			</defs>
			<clipPath id="SVGID_6_">
				<use xlink:href="#SVGID_5_"  style="overflow:visible;"/>
			</clipPath>
			<rect x="25.2" y="17.8" class="st3" width="10.8" height="3.6"/>
		</g>
	</g>
	<g>
		<g>
			<defs>
				<rect id="SVGID_7_" width="100" height="30"/>
			</defs>
			<clipPath id="SVGID_8_">
				<use xlink:href="#SVGID_7_"  style="overflow:visible;"/>
			</clipPath>
			<rect x="25.2" y="22.3" class="st4" width="10.8" height="0.6"/>
		</g>
	</g>
</g>
<g class="st5">
	<path class="st6" d="M47.6,16.8c1-0.1,2.1-0.1,3-0.3l0.1,0.7c-2.4,0.4-5,0.5-7,0.5l-0.1-0.8c0.9,0,1.9,0,3,0v-2h1V16.8z M44,14.5
		c1.6-0.5,2.7-1.7,2.7-3.1h-2.4v-0.8h2.4V9.3h1v1.3h2.5v0.8h-2.5c0,1.4,1.2,2.5,2.7,3l-0.5,0.8c-1.3-0.4-2.3-1.2-2.7-2.3
		c-0.5,1.1-1.5,2-2.7,2.4L44,14.5z M52.3,9.2V20h-1V9.2H52.3z"/>
	<path class="st6" d="M64.3,14.5v0.8h-9.7v-0.8H59V13h1v1.5H64.3z M55.1,12.8c1.9-0.2,3.6-1.1,3.7-2.3h-3.3V9.7h8v0.8h-3.3
		c0.1,1.2,1.8,2.1,3.7,2.3l-0.3,0.8c-1.8-0.2-3.4-1-4-2.2c-0.6,1.2-2.2,2-4,2.2L55.1,12.8z M63.1,18.1c0,1.2-1.4,1.9-3.7,1.9
		s-3.7-0.7-3.7-1.9c0-1.2,1.4-1.8,3.7-1.8S63.1,16.9,63.1,18.1z M62.2,18.1c0-0.7-1-1.1-2.7-1.1c-1.7,0-2.7,0.4-2.7,1.1
		c0,0.7,1,1.1,2.7,1.1C61.2,19.2,62.2,18.8,62.2,18.1z"/>
	<path class="st6" d="M75.4,15.1v0.8h-9.7v-0.8H70v-1.2h-3.1V9.6h1V11h5.2V9.6h1v4.3H71v1.2H75.4z M67.9,18.9h6.4v0.8h-7.4v-3h1
		V18.9z M67.9,13.1h5.2v-1.4h-5.2V13.1z"/>
</g>
</svg>
