<?xml version="1.0" encoding="utf-8"?>
<!-- Generator: Adobe Illustrator 24.0.1, SVG Export Plug-In . SVG Version: 6.00 Build 0)  -->
<svg version="1.1" id="图层_1" xmlns="http://www.w3.org/2000/svg" xmlns:xlink="http://www.w3.org/1999/xlink" x="0px" y="0px"
	 viewBox="0 0 100 30" style="enable-background:new 0 0 100 30;" xml:space="preserve">
<style type="text/css">
	.st0{fill:#2E6DAD;}
	.st1{clip-path:url(#SVGID_2_);fill:none;stroke:#FFFFFF;stroke-width:1.2;}
	.st2{fill:#FFFFFF;}
</style>
<rect class="st0" width="100" height="30"/>
<rect x="2.5" y="2.7" class="st0" width="95" height="25"/>
<g>
	<g>
		<g>
			<defs>
				<rect id="SVGID_1_" width="100" height="30"/>
			</defs>
			<clipPath id="SVGID_2_">
				<use xlink:href="#SVGID_1_"  style="overflow:visible;"/>
			</clipPath>
			<rect x="2.5" y="2.7" class="st1" width="95" height="25"/>
		</g>
	</g>
</g>
<path class="st2" d="M25.6,9.5H13.4h-1.3v1.3v9.1v1.3h1.3h12.2h1.3v-1.3v-9.1V9.5H25.6z M24.4,10.8l-5.2,3.4L15,10.8H24.4z
	 M25.6,19.9H13.4v-8.7l5.7,4.6v0.1l6.4-4.3v8.3H25.6z"/>
<g>
	<path class="st2" d="M46.3,15.8h-4.4v3.9h-1v-3.9h-4.3V15h9.7V15.8z M45.4,13.8c-1.7-0.3-3.3-1.2-4-2.5c-0.7,1.3-2.3,2.2-4,2.5
		L37,13c2-0.3,3.9-1.6,3.9-3.1V9.3h1v0.6c0,1.5,1.9,2.8,3.9,3.1L45.4,13.8z"/>
	<path class="st2" d="M53.5,15.1c-1.2-0.5-2.2-1.4-2.7-2.7c-0.5,1.3-1.4,2.4-2.7,2.9l-0.5-0.8c1.6-0.6,2.7-2.2,2.7-3.9V9.5h1v1.1
		c0,1.6,1.1,3.1,2.7,3.7L53.5,15.1z M56.7,18.7v0.8h-7.2v-3.4h1v2.6H56.7z M56.4,16.8h-1V8.9h1V16.8z"/>
	<path class="st2" d="M65.4,15.1c-2.2,0.4-4.8,0.4-6.6,0.4l-0.1-0.8c0.8,0,1.8,0,2.8,0v-1.1c-1.3-0.2-2.2-0.9-2.2-2.1
		c0-1.3,1.1-2.1,2.7-2.1c1.6,0,2.7,0.9,2.7,2.1c0,1.1-0.9,1.9-2.1,2.1v1.1c1-0.1,2-0.1,2.9-0.3L65.4,15.1z M61.9,12.9
		c1,0,1.7-0.5,1.7-1.4c0-0.8-0.7-1.4-1.7-1.4s-1.7,0.6-1.7,1.4C60.1,12.4,60.8,12.9,61.9,12.9z M61.1,18.6h6.2v0.8h-7.2v-3h1
		C61.1,16.4,61.1,18.6,61.1,18.6z M68.5,12.6v0.8h-1.6v3.8h-1V9h1v3.6H68.5z"/>
	<path class="st2" d="M79.4,17.6v0.8h-9.8v-0.8h2.7v-2h-1.5v-3.3h6.4v-1.7h-6.4V9.7h7.4V13h-6.4v1.7h6.6v0.8h-1.7v2h2.7V17.6z
		 M73.3,17.6h2.5v-2h-2.5V17.6z"/>
</g>
</svg>
