<?xml version="1.0" encoding="utf-8"?>
<!-- Generator: Adobe Illustrator 24.0.1, SVG Export Plug-In . SVG Version: 6.00 Build 0)  -->
<svg version="1.1" id="图层_1" xmlns="http://www.w3.org/2000/svg" xmlns:xlink="http://www.w3.org/1999/xlink" x="0px" y="0px"
	 viewBox="0 0 100 30" style="enable-background:new 0 0 100 30;" xml:space="preserve">
<style type="text/css">
	.st0{fill:#2E6DAD;}
	.st1{clip-path:url(#SVGID_2_);fill:none;stroke:#FFFFFF;stroke-width:1.2;}
	.st2{fill:#FFFFFF;}
</style>
<rect x="0" class="st0" width="100" height="30"/>
<rect x="2.8" y="2.6" class="st0" width="95" height="25"/>
<g>
	<g>
		<defs>
			<rect id="SVGID_1_" width="100" height="30"/>
		</defs>
		<clipPath id="SVGID_2_">
			<use xlink:href="#SVGID_1_"  style="overflow:visible;"/>
		</clipPath>
		<rect x="2.5" y="2.7" class="st1" width="95" height="25"/>
	</g>
</g>
<rect x="13.3" y="13.3" transform="matrix(0.6972 -0.7169 0.7169 0.6972 -4.0314 20.0226)" class="st2" width="16.9" height="3"/>
<rect x="28" y="6.3" transform="matrix(0.6971 -0.7169 0.7169 0.6971 3.044 22.8455)" class="st2" width="1.2" height="3"/>
<polygon class="st2" points="12.9,23.7 16.4,22.5 14.2,20.4 "/>
<g>
	<path class="st2" d="M45.5,15.9h-4.4v3.9h-1v-3.9h-4.3V15h9.7L45.5,15.9z M44.6,13.9c-1.7-0.3-3.3-1.2-4-2.5
		c-0.7,1.3-2.3,2.2-4,2.5l-0.4-0.8c2-0.3,3.9-1.6,3.9-3.1V9.4h1V10c0,1.5,1.9,2.8,3.9,3.1L44.6,13.9z"/>
	<path class="st2" d="M52.6,15c-1.2-0.4-2.1-1.3-2.6-2.4c-0.5,1.2-1.5,2.3-2.7,2.7l-0.5-0.8c1.6-0.6,2.7-2,2.7-3.6v-0.4h-2.4V9.8
		h5.7v0.8h-2.4v0.4c0,1.4,1.1,2.7,2.6,3.3L52.6,15z M55.7,17.7c0,1.3-1.4,2-3.6,2c-2.2,0-3.6-0.7-3.6-2s1.4-2,3.6-2
		C54.3,15.7,55.7,16.5,55.7,17.7z M54.7,17.7c0-0.8-1-1.2-2.6-1.2c-1.6,0-2.6,0.5-2.6,1.2s1,1.2,2.6,1.2
		C53.7,19,54.7,18.5,54.7,17.7z M54.6,11.8V9h1v6.4h-1v-2.8h-2.1v-0.8H54.6z"/>
	<path class="st2" d="M64.6,15.2c-2.2,0.4-4.8,0.4-6.6,0.4l-0.1-0.8c0.8,0,1.8,0,2.8,0v-1.1c-1.3-0.2-2.2-0.9-2.2-2.1
		c0-1.3,1.1-2.1,2.7-2.1c1.6,0,2.7,0.9,2.7,2.1c0,1.1-0.9,1.9-2.1,2.1v1.1c1-0.1,2-0.1,2.9-0.3L64.6,15.2z M61.1,13
		c1,0,1.7-0.5,1.7-1.4c0-0.8-0.7-1.4-1.7-1.4c-1,0-1.7,0.6-1.7,1.4C59.3,12.4,60,13,61.1,13z M60.3,18.7h6.2v0.8h-7.2v-3h1V18.7z
		 M67.7,12.6v0.8h-1.6v3.8h-1V9h1v3.6H67.7z"/>
	<path class="st2" d="M78.6,17.6v0.8h-9.8v-0.8h2.7v-2h-1.5v-3.3h6.4v-1.7H70V9.8h7.4V13H71v1.7h6.6v0.8H76v2H78.6z M72.5,17.6H75
		v-2h-2.5V17.6z"/>
</g>
</svg>
