<?xml version="1.0" encoding="utf-8"?>
<!-- Generator: Adobe Illustrator 24.0.1, SVG Export Plug-In . SVG Version: 6.00 Build 0)  -->
<svg version="1.1" id="图层_1" xmlns="http://www.w3.org/2000/svg" xmlns:xlink="http://www.w3.org/1999/xlink" x="0px" y="0px"
	 viewBox="0 0 100 30" style="enable-background:new 0 0 100 30;" xml:space="preserve">
<style type="text/css">
	.st0{fill:#2E6DAD;}
	.st1{clip-path:url(#SVGID_2_);fill:none;stroke:#FFFFFF;stroke-width:1.2;}
	.st2{clip-path:url(#SVGID_4_);fill:#FFFFFF;}
	.st3{fill:#FFFFFF;}
</style>
<rect x="0" class="st0" width="100" height="30"/>
<rect x="2.5" y="2.7" class="st0" width="95" height="25"/>
<g>
	<g>
		<defs>
			<rect id="SVGID_1_" width="100" height="30"/>
		</defs>
		<clipPath id="SVGID_2_">
			<use xlink:href="#SVGID_1_"  style="overflow:visible;"/>
		</clipPath>
		<rect x="2.5" y="2.7" class="st1" width="95" height="25"/>
	</g>
	<g>
		<defs>
			<rect id="SVGID_3_" width="100" height="30"/>
		</defs>
		<clipPath id="SVGID_4_">
			<use xlink:href="#SVGID_3_"  style="overflow:visible;"/>
		</clipPath>
		<path class="st2" d="M25.9,21.5L20.9,17c-0.1,0-0.1-0.1-0.2-0.1c0.5-0.9,0.8-1.9,0.8-3c0-3.6-2.9-6.5-6.5-6.5
			c-3.6,0-6.5,2.9-6.5,6.5c0,3.6,2.9,6.5,6.5,6.5c1.7,0,3.2-0.6,4.3-1.7c0,0,0,0,0,0.1l5.1,4.5c0.3,0.2,0.8,0,1.2-0.5
			C26.1,22.3,26.2,21.7,25.9,21.5 M15,19.6c-3.1,0-5.7-2.5-5.7-5.7c0-3.1,2.5-5.7,5.7-5.7s5.7,2.6,5.7,5.7
			C20.7,17,18.1,19.6,15,19.6"/>
	</g>
</g>
<g>
	<path class="st3" d="M37.9,10c0,2.7-1.9,4.7-5,5.5l-0.4-0.8c2.6-0.7,4.1-2.1,4.4-4H33V10H37.9z M34.3,15.9h6.9v4h-6.9V15.9z
		 M35.3,19.2h5v-2.4h-5V19.2z M41.2,9.3v6.1h-1v-2.6h-2.3v-0.8h2.3V9.3H41.2z"/>
	<path class="st3" d="M53.2,18v0.8h-9.8V18h4.4v-2.2h-3.1v-5.5H52V11h-6.3v1.5h6.1v0.8h-6.1v1.6h6.4v0.8h-3.3V18H53.2z"/>
	<path class="st3" d="M61.2,15.5C59,16,56.4,16,54.6,16l-0.1-0.8c0.8,0,1.8,0,2.8,0v-1.1c-1.3-0.2-2.2-0.9-2.2-2.1
		c0-1.3,1.1-2.1,2.7-2.1c1.6,0,2.7,0.9,2.7,2.1c0,1.1-0.9,1.9-2.1,2.1v1.1c1-0.1,2-0.1,2.9-0.3L61.2,15.5z M57.7,13.3
		c1,0,1.7-0.5,1.7-1.4c0-0.8-0.7-1.4-1.7-1.4c-1,0-1.7,0.6-1.7,1.4C56,12.8,56.7,13.3,57.7,13.3z M57,19h6.2v0.8H56v-3h1V19z
		 M64.4,13v0.8h-1.6v3.8h-1V9.4h1V13H64.4z"/>
	<path class="st3" d="M75.3,18v0.8h-9.8V18h2.7v-2h-1.5v-3.3h6.4v-1.7h-6.4v-0.8H74v3.3h-6.4v1.7h6.6v0.8h-1.7v2H75.3z M69.2,18h2.5
		v-2h-2.5V18z"/>
</g>
</svg>
