<?xml version="1.0" encoding="utf-8"?>
<!-- Generator: Adobe Illustrator 24.0.1, SVG Export Plug-In . SVG Version: 6.00 Build 0)  -->
<svg version="1.1" id="图层_1" xmlns="http://www.w3.org/2000/svg" xmlns:xlink="http://www.w3.org/1999/xlink" x="0px" y="0px"
	 viewBox="0 0 100 30" style="enable-background:new 0 0 100 30;" xml:space="preserve">
<style type="text/css">
	.st0{fill:#2E6DAD;}
	.st1{clip-path:url(#SVGID_2_);fill:none;stroke:#FFFFFF;stroke-width:1.2;}
	.st2{fill:none;stroke:#FFFFFF;stroke-width:1.2;}
	.st3{enable-background:new    ;}
	.st4{fill:#FFFFFF;}
</style>
<rect class="st0" width="100" height="30"/>
<rect x="2.5" y="2.7" class="st0" width="95" height="25"/>
<g>
	<g>
		<g>
			<defs>
				<rect id="SVGID_1_" width="100" height="30"/>
			</defs>
			<clipPath id="SVGID_2_">
				<use xlink:href="#SVGID_1_"  style="overflow:visible;"/>
			</clipPath>
			<rect x="2.5" y="2.7" class="st1" width="95" height="25"/>
		</g>
	</g>
</g>
<polygon class="st0" points="15.8,21.9 23.4,8.7 31.1,21.9 "/>
<polygon class="st2" points="15.8,21.9 23.4,8.7 31.1,21.9 "/>
<g class="st3">
	<path class="st4" d="M23.4,19.3v0.2h-3v-0.2h1.4V19h-1v-1.4H23v0.2h-2v0.3h1.9v0.2H21v0.3h2V19h-1v0.3H23.4z M23,20.3
		c0,0.4-0.4,0.5-1.2,0.5s-1.2-0.2-1.2-0.5c0-0.3,0.4-0.5,1.2-0.5S23,20,23,20.3z M22.7,20.3c0-0.2-0.3-0.3-0.8-0.3
		c-0.5,0-0.8,0.1-0.8,0.3c0,0.2,0.3,0.3,0.8,0.3C22.4,20.6,22.7,20.5,22.7,20.3z"/>
	<path class="st4" d="M24.8,19.9c0.4,0,0.7,0,1.1-0.1l0,0.2c-0.7,0.1-1.5,0.1-2.1,0.1l0-0.3c0.2,0,0.5,0,0.7,0v-1h0.3V19.9z
		 M25.2,19.4c0.1-0.6,0.1-1,0.1-1.2h-1.4v-0.3h1.7v0.2c0,0.3,0,0.7-0.1,1.3L25.2,19.4z M26.9,19.2h-0.5v1.7h-0.3v-3.4h0.3v1.4h0.5
		V19.2z"/>
</g>
<g class="st3">
	<path class="st4" d="M44.8,15.3c-2.3,0.4-4.8,0.4-6.7,0.4L38,15c0.9,0,1.8,0,2.9,0v-0.8c-1.2-0.1-2-0.7-2-1.6c0-1,1-1.6,2.5-1.6
		c1.5,0,2.5,0.6,2.5,1.6c0,0.9-0.8,1.5-2,1.6v0.7c1,0,2-0.1,2.9-0.3L44.8,15.3z M44.4,10.6h-6.2V9.8h2.6V8.8h1v1.1h2.6V10.6z
		 M39.3,16.6h7.1v3h-1v-2.2h-6.1V16.6z M41.4,13.5c0.9,0,1.6-0.4,1.6-0.9c0-0.6-0.6-0.9-1.6-0.9c-1,0-1.6,0.3-1.6,0.9
		C39.8,13.1,40.4,13.5,41.4,13.5z M48,12.9h-1.6v3.1h-1V8.9h1v3.3H48V12.9z"/>
	<path class="st4" d="M52.1,14.9c-1.6,0-2.8-1.1-2.8-2.7c0-1.5,1.2-2.6,2.8-2.6c1.6,0,2.8,1.1,2.8,2.6C55,13.8,53.7,14.9,52.1,14.9z
		 M52.1,14c1.1,0,1.9-0.7,1.9-1.8c0-1-0.8-1.8-1.9-1.8c-1,0-1.8,0.7-1.8,1.8C50.3,13.3,51.1,14,52.1,14z M58.2,18.6v0.8H51v-3.5h1
		v2.7H58.2z M57.9,16.7h-1V8.9h1V16.7z"/>
	<path class="st4" d="M66.9,15c-2.2,0.4-4.8,0.4-6.6,0.4l-0.1-0.8c0.8,0,1.8,0,2.8,0v-1.1c-1.3-0.2-2.2-0.9-2.2-2.1
		c0-1.3,1.1-2.1,2.7-2.1c1.6,0,2.7,0.9,2.7,2.1c0,1.1-0.9,1.9-2.1,2.1v1.1c1-0.1,2-0.1,2.9-0.3L66.9,15z M63.4,12.8
		c1,0,1.7-0.5,1.7-1.4c0-0.8-0.7-1.4-1.7-1.4c-1,0-1.7,0.6-1.7,1.4C61.7,12.3,62.4,12.8,63.4,12.8z M62.6,18.5h6.2v0.8h-7.2v-3h1
		V18.5z M70,12.5v0.8h-1.6v3.8h-1V8.9h1v3.6H70z"/>
	<path class="st4" d="M80.9,17.5v0.8h-9.8v-0.8h2.7v-2h-1.5v-3.3h6.4v-1.7h-6.4V9.6h7.4v3.3h-6.4v1.7H80v0.8h-1.7v2H80.9z
		 M74.9,17.5h2.5v-2h-2.5V17.5z"/>
</g>
</svg>
