<?xml version="1.0" encoding="utf-8"?>
<!-- Generator: Adobe Illustrator 24.0.1, SVG Export Plug-In . SVG Version: 6.00 Build 0)  -->
<svg version="1.1" id="图层_1" xmlns="http://www.w3.org/2000/svg" xmlns:xlink="http://www.w3.org/1999/xlink" x="0px" y="0px"
	 viewBox="0 0 100 30" style="enable-background:new 0 0 100 30;" xml:space="preserve">
<style type="text/css">
	.st0{fill:#CD4C32;}
	.st1{clip-path:url(#SVGID_2_);fill:none;stroke:#FFFFFF;stroke-width:1.3;}
	.st2{fill:#FFFFFF;}
	.st3{enable-background:new    ;}
</style>
<rect class="st0" width="100" height="30"/>
<rect x="2.5" y="2.7" class="st0" width="95" height="25"/>
<g>
	<g>
		<g>
			<defs>
				<rect id="SVGID_1_" width="100" height="30"/>
			</defs>
			<clipPath id="SVGID_2_">
				<use xlink:href="#SVGID_1_"  style="overflow:visible;"/>
			</clipPath>
			<rect x="2.5" y="2.7" class="st1" width="95" height="25"/>
		</g>
	</g>
</g>
<rect x="28.4" y="8.6" transform="matrix(0.7223 -0.6916 0.6916 0.7223 -2.3887 24.8621)" class="st2" width="2.7" height="13.7"/>
<rect x="22.6" y="14.1" transform="matrix(0.6916 -0.7223 0.7223 0.6916 -2.0384 26.0322)" class="st2" width="13.7" height="2.7"/>
<g class="st3">
	<path class="st2" d="M55.1,16.9h-4.4v3.7h-1v-3.7h-4.4v-0.8h9.8V16.9z M53.8,14.7h-7.3v-4.2h7.3V14.7z M52.9,11.3h-5.3v2.6h5.3
		V11.3z"/>
	<path class="st2" d="M66.1,18.6v0.8h-9.8v-0.8h2.6v-2c-0.8-0.3-1.2-0.9-1.2-1.6c0-1.3,1.4-2,3.5-2c2.1,0,3.5,0.7,3.5,2
		c0,0.7-0.4,1.3-1.2,1.6v2H66.1z M65.6,12.3h-8.7v-0.8h3.9V10h1v1.4h3.9V12.3z M58.7,15c0,0.8,1,1.2,2.5,1.2c1.5,0,2.5-0.5,2.5-1.2
		c0-0.8-1-1.2-2.5-1.2C59.7,13.7,58.7,14.2,58.7,15z M59.9,18.6h2.6v-1.7c-0.4,0.1-0.8,0.1-1.3,0.1c-0.5,0-0.9,0-1.3-0.1V18.6z"/>
</g>
</svg>
