<?xml version="1.0" encoding="utf-8"?>
<!-- Generator: Adobe Illustrator 24.0.1, SVG Export Plug-In . SVG Version: 6.00 Build 0)  -->
<svg version="1.1" id="图层_1" xmlns="http://www.w3.org/2000/svg" xmlns:xlink="http://www.w3.org/1999/xlink" x="0px" y="0px"
	 viewBox="0 0 100 30" style="enable-background:new 0 0 100 30;" xml:space="preserve">
<style type="text/css">
	.st0{fill:#4EA984;}
	.st1{clip-path:url(#SVGID_2_);fill:none;stroke:#FFFFFF;stroke-width:1.3;}
	.st2{display:none;fill:#FFFFFF;}
	.st3{font-family:'SourceHanSansHWTC-Regular-B5pc-H';}
	.st4{font-size:12px;}
	.st5{fill:#FFFFFF;}
</style>
<rect x="0" class="st0" width="100" height="30"/>
<rect x="1" y="2.7" class="st0" width="95" height="25"/>
<g>
	<g>
		<defs>
			<rect id="SVGID_1_" width="100" height="30"/>
		</defs>
		<clipPath id="SVGID_2_">
			<use xlink:href="#SVGID_1_"  style="overflow:visible;"/>
		</clipPath>
		<rect x="2.5" y="2.7" class="st1" width="95" height="25"/>
	</g>
</g>
<text transform="matrix(1 0 0 1 36.0296 18.8531)" class="st2 st3 st4">허용</text>
<g>
	<path class="st5" d="M44.5,11.5h-6.4v-0.8h2.7V9.1h1v1.6h2.7V11.5z M43.8,14.9c0,1.5-1.1,2.5-2.5,2.5c-1.5,0-2.5-1-2.5-2.5
		c0-1.4,1.1-2.5,2.5-2.5C42.8,12.4,43.8,13.4,43.8,14.9z M42.9,14.9c0-1-0.7-1.6-1.6-1.6c-0.9,0-1.6,0.7-1.6,1.6
		c0,1,0.7,1.7,1.6,1.7C42.2,16.5,42.9,15.8,42.9,14.9z M47,9v10.7h-1v-5.4h-1.8v-0.8H46V9H47z"/>
	<path class="st5" d="M58.9,14.3v0.8h-9.7v-0.8h2.4v-1.5c-0.9-0.3-1.3-0.9-1.3-1.6c0-1.3,1.5-2,3.8-2c2.3,0,3.8,0.7,3.8,2
		c0,0.7-0.5,1.3-1.3,1.6v1.5H58.9z M57.7,17.8c0,1.2-1.4,1.9-3.7,1.9c-2.3,0-3.7-0.7-3.7-1.9s1.4-1.9,3.7-1.9
		C56.3,15.9,57.7,16.6,57.7,17.8z M54,12.4c1.7,0,2.8-0.5,2.8-1.2c0-0.8-1.1-1.2-2.8-1.2c-1.7,0-2.8,0.5-2.8,1.2
		C51.3,11.9,52.3,12.4,54,12.4z M56.7,17.8c0-0.7-1-1.2-2.7-1.2c-1.7,0-2.7,0.4-2.7,1.2c0,0.7,1,1.2,2.7,1.2
		C55.7,19,56.7,18.6,56.7,17.8z M52.5,14.3h3V13c-0.4,0.1-0.9,0.1-1.5,0.1c-0.5,0-1,0-1.5-0.1V14.3z"/>
</g>
</svg>
