<?xml version="1.0" encoding="utf-8"?>
<!-- Generator: Adobe Illustrator 24.0.1, SVG Export Plug-In . SVG Version: 6.00 Build 0)  -->
<svg version="1.1" id="图层_1" xmlns="http://www.w3.org/2000/svg" xmlns:xlink="http://www.w3.org/1999/xlink" x="0px" y="0px"
	 viewBox="0 0 100 30" style="enable-background:new 0 0 100 30;" xml:space="preserve">
<style type="text/css">
	.st0{fill:#4EA984;}
	.st1{clip-path:url(#SVGID_2_);fill:none;stroke:#FFFFFF;stroke-width:1.3;}
	.st2{display:none;}
	.st3{display:inline;fill:#FFFFFF;}
	.st4{fill:#FFFFFF;}
	.st5{font-family:'SourceHanSansHWTC-Regular-B5pc-H';}
	.st6{font-size:12px;}
</style>
<rect x="0" class="st0" width="100" height="30"/>
<rect x="2.5" y="2.7" class="st0" width="95" height="25"/>
<g>
	<g>
		<defs>
			<rect id="SVGID_1_" width="100" height="30"/>
		</defs>
		<clipPath id="SVGID_2_">
			<use xlink:href="#SVGID_1_"  style="overflow:visible;"/>
		</clipPath>
		<rect x="2.5" y="2.7" class="st1" width="95" height="25"/>
	</g>
</g>
<g class="st2">
	<path class="st3" d="M34.5,9.5l-2.5,9.1h-1.4l-1.8-6.5c-0.1-0.3-0.1-0.6-0.1-0.9h0c0,0.3-0.1,0.6-0.2,0.9l-1.8,6.6h-1.4l-2.6-9.1
		h1.3l1.9,6.9c0.1,0.3,0.1,0.6,0.1,0.9h0c0-0.2,0.1-0.5,0.2-0.9l2-6.9h1.2l1.9,6.9c0.1,0.2,0.1,0.5,0.2,0.9h0c0-0.3,0.1-0.6,0.2-0.9
		l1.8-6.9L34.5,9.5L34.5,9.5z"/>
	<path class="st3" d="M36.7,9.5v9.1h-1.2V9.5H36.7z"/>
	<path class="st3" d="M44.2,10.6h-2.6v8h-1.2v-8h-2.6v-1h6.4V10.6z"/>
	<path class="st3" d="M52.7,18.6h-1.4l-4.6-7.1c-0.1-0.2-0.2-0.4-0.3-0.6h0c0,0.2,0,0.6,0,1.3v6.4h-1.2V9.5h1.5l4.4,6.9
		c0.2,0.3,0.3,0.5,0.4,0.6h0c0-0.3-0.1-0.7-0.1-1.3V9.5h1.2L52.7,18.6L52.7,18.6z"/>
	<path class="st3" d="M59.6,18.6h-4.9V9.5h4.7v1h-3.5v2.9h3.2v1h-3.2v3.1h3.7C59.6,17.6,59.6,18.6,59.6,18.6z"/>
	<path class="st3" d="M60.6,16.9c0.3,0.2,0.6,0.4,1.1,0.6s0.9,0.2,1.3,0.2c1.3,0,1.9-0.5,1.9-1.4c0-0.3-0.1-0.5-0.2-0.7
		s-0.3-0.4-0.6-0.5s-0.7-0.4-1.3-0.7c-0.9-0.5-1.5-0.9-1.8-1.3s-0.4-0.8-0.4-1.3c0-0.8,0.3-1.4,0.9-1.8s1.4-0.7,2.3-0.7
		c0.9,0,1.6,0.1,2,0.3V11c-0.5-0.4-1.2-0.6-2.1-0.6c-0.6,0-1,0.1-1.4,0.3s-0.5,0.6-0.5,1c0,0.4,0.1,0.7,0.4,0.9s0.8,0.5,1.6,0.9
		c0.9,0.4,1.5,0.9,1.9,1.3s0.5,0.9,0.5,1.4c0,0.8-0.3,1.4-0.9,1.8s-1.4,0.6-2.4,0.6c-0.4,0-0.8,0-1.3-0.1s-0.8-0.2-1-0.4L60.6,16.9
		L60.6,16.9z"/>
	<path class="st3" d="M67.3,16.9c0.3,0.2,0.6,0.4,1.1,0.6s0.9,0.2,1.3,0.2c1.3,0,1.9-0.5,1.9-1.4c0-0.3-0.1-0.5-0.2-0.7
		s-0.3-0.4-0.6-0.5s-0.7-0.4-1.3-0.7c-0.9-0.5-1.5-0.9-1.8-1.3s-0.4-0.8-0.4-1.3c0-0.8,0.3-1.4,0.9-1.8s1.4-0.7,2.3-0.7
		c0.9,0,1.6,0.1,2,0.3V11c-0.5-0.4-1.2-0.6-2.1-0.6c-0.6,0-1,0.1-1.4,0.3s-0.5,0.6-0.5,1c0,0.4,0.1,0.7,0.4,0.9s0.8,0.5,1.6,0.9
		c0.9,0.4,1.5,0.9,1.9,1.3s0.5,0.9,0.5,1.4c0,0.8-0.3,1.4-0.9,1.8s-1.4,0.6-2.4,0.6c-0.4,0-0.8,0-1.3-0.1s-0.8-0.2-1-0.4L67.3,16.9
		L67.3,16.9z"/>
</g>
<text transform="matrix(1 0 0 1 36.4537 17.9918)" class="st4 st5 st6">증인</text>
</svg>
